<?xml version="1.0" encoding="UTF-8" standalone="no"?>
<!-- Created with Inkscape (http://www.inkscape.org/) -->

<svg
   xmlns:dc="http://purl.org/dc/elements/1.1/"
   xmlns:cc="http://creativecommons.org/ns#"
   xmlns:rdf="http://www.w3.org/1999/02/22-rdf-syntax-ns#"
   xmlns:svg="http://www.w3.org/2000/svg"
   xmlns="http://www.w3.org/2000/svg"
   xmlns:sodipodi="http://sodipodi.sourceforge.net/DTD/sodipodi-0.dtd"
   xmlns:inkscape="http://www.inkscape.org/namespaces/inkscape"
   id="svg4190"
   version="1.1"
   inkscape:version="0.91 r13725"
   width="420mm"
   height="297mm"
   viewBox="0 0 1488.189 1052.3622"
   sodipodi:docname="logo_inkscape.svg"
   inkscape:export-filename="/home/dafrick/repositories/falcopt/logo/logo.jpg"
   inkscape:export-xdpi="51.859333"
   inkscape:export-ydpi="51.859333">
  <metadata
     id="metadata4196">
    <rdf:RDF>
      <cc:Work
         rdf:about="">
        <dc:format>image/svg+xml</dc:format>
        <dc:type
           rdf:resource="http://purl.org/dc/dcmitype/StillImage" />
        <dc:title />
      </cc:Work>
    </rdf:RDF>
  </metadata>
  <defs
     id="defs4194" />
  <sodipodi:namedview
     pagecolor="#ffffff"
     bordercolor="#666666"
     borderopacity="1"
     objecttolerance="10"
     gridtolerance="10"
     guidetolerance="10"
     inkscape:pageopacity="0"
     inkscape:pageshadow="2"
     inkscape:window-width="1861"
     inkscape:window-height="1056"
     id="namedview4192"
     showgrid="false"
     inkscape:zoom="0.30633333"
     inkscape:cx="838.28558"
     inkscape:cy="474.30726"
     inkscape:window-x="59"
     inkscape:window-y="24"
     inkscape:window-maximized="1"
     inkscape:current-layer="layer1"
     units="mm"
     showguides="false" />
  <g
     inkscape:groupmode="layer"
     id="layer1"
     inkscape:label="text">
    <flowRoot
       xml:space="preserve"
       id="flowRoot4236"
       style="fill:black;stroke:none;stroke-opacity:1;stroke-width:1px;stroke-linejoin:miter;stroke-linecap:butt;fill-opacity:1;font-family:'Noto Sans Mono CJK KR';font-style:normal;font-weight:normal;font-size:24px;line-height:125%;letter-spacing:0px;word-spacing:0px;-inkscape-font-specification:'Noto Sans Mono CJK KR';font-stretch:normal;font-variant:normal;"><flowRegion
         id="flowRegion4238"><rect
           id="rect4240"
           width="983.3324"
           height="276.99506"
           x="420.10916"
           y="756.90082"
           style="-inkscape-font-specification:'Noto Sans Mono CJK KR';font-family:'Noto Sans Mono CJK KR';font-weight:normal;font-style:normal;font-stretch:normal;font-variant:normal;" /></flowRegion><flowPara
         id="flowPara4242" /></flowRoot>    <flowRoot
       xml:space="preserve"
       id="flowRoot4244"
       style="font-style:normal;font-variant:normal;font-weight:normal;font-stretch:normal;font-size:24px;line-height:125%;font-family:'Noto Sans Mono CJK KR';-inkscape-font-specification:'Noto Sans Mono CJK KR';letter-spacing:0px;word-spacing:0px;fill:#000000;fill-opacity:1;stroke:none;stroke-width:1px;stroke-linecap:butt;stroke-linejoin:miter;stroke-opacity:1;"><flowRegion
         id="flowRegion4246"><rect
           id="rect4248"
           width="1652.7371"
           height="710.95392"
           x="397.02621"
           y="710.73499"
           style="-inkscape-font-specification:'Noto Sans Mono CJK KR';font-family:'Noto Sans Mono CJK KR';font-weight:normal;font-style:normal;font-stretch:normal;font-variant:normal;" /></flowRegion><flowPara
         id="flowPara4250"
         style="font-size:625px;-inkscape-font-specification:'Noto Sans Mono CJK KR';font-family:'Noto Sans Mono CJK KR';font-weight:normal;font-style:normal;font-stretch:normal;font-variant:normal;">falcopt</flowPara></flowRoot>    <flowRoot
       style="font-style:normal;font-variant:normal;font-weight:normal;font-stretch:normal;font-size:42.7498436px;line-height:125%;font-family:'Gill Sans MT Pro';-inkscape-font-specification:'Gill Sans MT Pro';letter-spacing:0px;word-spacing:0px;display:inline;fill:#e50b00;fill-opacity:1;stroke:none;stroke-width:1px;stroke-linecap:butt;stroke-linejoin:miter;stroke-opacity:1"
       id="flowRoot4260"
       xml:space="preserve"><flowRegion
         id="flowRegion4262"><rect
           y="289.3584"
           x="38.595192"
           height="1069.0239"
           width="2084.5967"
           id="rect4264"
           style="fill:#e50b00;fill-opacity:1" /></flowRegion><flowPara
         style="font-style:normal;font-variant:normal;font-weight:500;font-stretch:normal;font-size:445.31091309px;line-height:125%;font-family:'Noto Sans CJK KR';-inkscape-font-specification:'Noto Sans CJK KR, Medium';text-align:start;letter-spacing:-14.74887562px;writing-mode:lr-tb;text-anchor:start;fill:#e50b00;fill-opacity:1"
         id="flowPara4266">falc</flowPara></flowRoot>    <flowRoot
       xml:space="preserve"
       id="flowRoot4178"
       style="font-style:normal;font-variant:normal;font-weight:normal;font-stretch:normal;font-size:42.7498436px;line-height:125%;font-family:'Gill Sans MT Pro';-inkscape-font-specification:'Gill Sans MT Pro';letter-spacing:0px;word-spacing:0px;display:inline;fill:#000000;fill-opacity:1;stroke:none;stroke-width:1px;stroke-linecap:butt;stroke-linejoin:miter;stroke-opacity:1"
       transform="translate(1186,0)"><flowRegion
         id="flowRegion4180"><rect
           id="rect4182"
           width="2084.5967"
           height="1069.0239"
           x="58.595192"
           y="289.3584" /></flowRegion><flowPara
         id="flowPara4184"
         style="font-style:normal;font-variant:normal;font-weight:500;font-stretch:normal;font-size:445.31091309px;line-height:125%;font-family:'Noto Sans CJK KR';-inkscape-font-specification:'Noto Sans CJK KR, Medium';text-align:start;letter-spacing:-14.74887562px;writing-mode:lr-tb;text-anchor:start;fill:#ff8314;fill-opacity:1">t</flowPara></flowRoot>    <g
       style="display:inline"
       id="g4223"
       transform="matrix(0.51534468,0,0,0.51534468,994.79156,-91.59064)">
      <path
         style="display:inline;opacity:1;fill:#e50b00;fill-opacity:1;fill-rule:evenodd;stroke:none;stroke-width:1px;stroke-linecap:butt;stroke-linejoin:miter;stroke-opacity:1"
         d="m 562.79044,369.08119 -1.29841,-1.15415 -3.1739,-13.12841 -0.28854,-7.93475 5.48219,-11.68573 9.66598,-11.25292 9.81024,-7.35768 11.68573,-3.89525 8.51182,-8.80036 3.58812,-6.40187 12.44559,-7.95701 15.30196,-5.50871 17.34222,-3.46844 17.13819,-0.61208 16.93417,0.40805 18.36235,3.46844 21.62677,6.52884 18.7704,7.75299 12.64962,9.58923 16.11806,12.03754 17.41555,21.23996 9.81024,12.98414 7.50195,17.31219 4.32804,13.27268 -3.1739,13.27268 -0.86561,14.13829 3.34064,17.54611 6.32481,20.19859 9.18118,13.66975 6.12078,10.2013 1.22416,6.12079 -1.63221,9.99728 -5.91676,15.50598 0.25654,13.0859 -0.72134,14.85963 -0.72134,6.78061 8.51183,1.44268 7.64622,4.90512 8.65609,8.65609 8.36756,13.12842 c 0,0 3.6067,6.92487 3.89524,8.07902 0.28854,1.15414 1.44268,12.83987 1.44268,12.83987 l 1.44269,15.29244 -0.14427,15.00389 -4.32805,18.03354 -8.51183,23.94852 -12.83987,22.65012 -14.85963,23.94853 -13.70548,21.49597 -20.63036,25.96828 -21.06317,20.19756 c 0,0 -9.5217,7.50195 -10.38731,8.65609 -0.86561,1.15415 -19.33195,10.09878 -19.33195,10.09878 l -10.09878,4.03951 -13.27267,1.15415 -6.05927,-19.62048 -17.45646,28.42084 -9.81024,21.20743 -10.96439,19.62049 -11.68573,18.03353 -12.83987,18.89914 -8.80036,12.6956 -1.73122,2.3083 -0.72134,6.63634 -7.43925,4.46418 -9.28319,13.05767 -0.71409,8.5691 0.40805,29.27774 0.10202,1.63221 8.05903,-1.53019 c 0,0 18.7704,-1.02013 19.38248,-1.22416 0.61208,-0.20403 18.97443,-0.51007 18.97443,-0.51007 l 3.46844,-0.10201 3.75835,1.33173 5.98713,4.32805 5.33792,6.3478 2.01976,6.92488 0.035,11.16139 -3.26442,8.5691 -3.8765,4.89661 -2.65234,-12.24155 -3.06039,-8.77312 -3.55584,2.44683 -4.40018,0.64921 -4.68872,-3.24604 c -0.57044,-0.39492 -1.55727,-4.3239 -1.58695,-4.47231 l -12.6956,-1.00988 -3.89525,1.87549 -12.83905,2.43053 -2.55032,2.55032 c 0,0 -4.28455,-0.61207 -3.8765,0.20403 0.40805,0.8161 5.10065,4.59059 5.10065,4.59059 l 7.95702,6.12078 c 0,0 6.93689,2.14228 7.54897,2.3463 0.61208,0.20403 11.62949,6.22282 11.62949,6.22282 l 5.20266,6.6308 0.91812,4.4886 0.0966,0.9872 0,1.7312 2.7411,4.1117 2.30829,4.1838 1.37055,4.5444 -0.36067,7.502 -0.28854,1.082 -2.59683,-3.5346 -3.1739,-6.9249 -3.1739,-5.1215 -1.15415,2.0919 -4.11164,1.4427 -6.49207,-3.6789 -4.03951,-3.3181 c 0,0 -1.58695,1.8755 -2.01976,2.5968 -0.4328,0.7213 -3.75097,0 -3.75097,0 l -7.21342,-3.751 -8.51182,-7.2134 -8.80037,-6.2035 -7.21341,-4.0395 -3.89524,-1.0099 -3.1739,3.4624 -2.88537,5.1937 c 0,0 3.31817,6.4921 3.1739,7.0691 -0.14426,0.5771 -0.72134,8.2233 -0.72134,8.2233 l -6.49207,2.5968 -1.15414,4.9052 -0.0806,9.9005 -0.30604,6.4269 -1.93825,2.6523 -6.01877,2.5503 1.5302,3.9785 5.40669,8.3651 2.65234,6.3248 -1.02013,5.1007 -7.75299,-1.6322 -5.71273,-7.345 -3.8765,-8.161 -2.85636,5.5087 -4.08053,5.3047 -3.46844,5.1006 0,8.1611 -1.22416,7.1409 -3.67247,-1.8363 -3.67247,-5.7127 -1.42818,-8.5691 c 0,0 1.83623,-6.1208 2.85637,-7.957 1.02013,-1.8362 5.71273,-6.3248 6.52883,-7.957 0.81611,-1.6322 2.24429,-4.0806 2.24429,-4.0806 l 6.32481,-4.6926 1.02013,-7.3449 1.02013,-7.957 1.83623,-3.8765 0.61208,-35.29653 2.85637,-29.17573 -10.57421,-19.46216 -9.81024,-24.23707 -14.42682,-33.47023 -4.90512,-12.69561 -4.61659,4.90512 -5.77073,-4.90512 -2.88536,7.50195 -12.40707,6.63634 -0.28854,16.15804 -1.15415,5.4822 -3.75097,-6.05927 -3.75097,-15.29244 -1.44269,7.79049 0.28854,11.54146 -4.32805,3.1739 -3.1739,-12.6956 -1.15415,-6.92488 -5.48219,-16.73512 -2.01975,10.96439 -1.73122,6.3478 c 0,0 -3.17391,-3.1739 -3.17391,-4.61658 0,-1.44268 -2.59682,-12.40707 -2.59682,-12.40707 l -7.21342,10.67585 -27.67683,42.82306 -28.56366,44.88575 -29.78781,43.25356 -42.02938,55.9031 -18.23032,26.6515 -16.44658,20.7747 -8.94463,6.9248 -16.15805,0 -4.03951,-2.3082 -2.88536,4.9051 -9.23317,4.328 -10.96439,6.0593 -17.60073,4.6166 -6.49207,-1.2984 -3.46243,-1.8755 -7.06915,2.3083 -8.65609,-1.1542 -8.6561,-4.6166 -2.30829,-3.0296 -9.95451,4.6166 -8.36756,1.5869 -5.48219,1.7313 -1.58695,-2.3083 -0.57708,-2.7411 -6.92487,-1.587 -0.72134,-4.4723 5.48219,-22.073 -3.31817,-1.0099 -1.15415,-3.6067 c 0,0 5.04939,-8.2233 5.62647,-9.2332 0.57707,-1.0099 6.92487,-10.9644 6.92487,-10.9644 l 10.53158,-14.4268 9.81025,-11.2529 0,-2.4526 6.63634,-14.2826 9.0889,-19.4762 10.67585,-18.1778 7.06914,-12.1185 3.31817,-7.06914 7.93475,-16.44658 5.33793,-10.09878 -19.33195,6.78061 -18.46633,7.35768 -26.8339,12.11853 -36.06706,18.75488 -18.75487,10.3873 -14.42683,7.7905 -7.35768,2.5968 -2.59683,-2.0197 -1.73122,-2.3083 -2.88536,1.5869 -1.00988,-2.164 0,-9.5217 c 0,0 3.75098,-11.2529 4.18378,-12.4071 0.43281,-1.1541 11.68573,-15.86948 11.68573,-15.86948 l 18.46634,-16.30231 10.82011,-7.64622 8.94464,-3.89524 3.46243,-3.60671 5.4822,-3.46244 7.21341,-9.0889 6.49207,-11.54146 15.29244,-11.39719 13.56121,-8.36756 2.59683,-5.04938 6.3478,-1.73122 2.7411,-7.64622 4.03951,-2.01976 8.94463,-9.95451 3.89524,-1.44268 5.4822,-9.37743 10.24304,-8.22329 8.94463,-7.21342 10.01068,-6.78458 10.60936,-10.60936 5.10065,-2.85636 6.12078,-10.60936 5.50871,-6.73286 4.28455,-0.61208 10.60936,-9.79326 5.71273,-5.5087 7.75299,-4.6926 3.67247,-0.40805 1.63221,-6.73287 2.85636,-3.26441 3.97851,-11.22144 3.97851,-9.28319 8.87514,-17.2402 10.50734,-14.99592 3.26442,-5.10066 3.8765,-3.87649 1.73422,-7.0389 8.97715,-8.5691 2.5555,-1.65603 5.915,-10.38731 2.01975,-6.78061 -0.14426,-6.3478 4.61658,-6.92488 3.02963,-7.93475 5.77073,-8.6561 2.88537,-3.46243 2.88536,-7.50195 7.50195,-11.54146 4.61659,-10.38732 2.88536,-4.61658 6.63634,-9.81024 6.05927,-10.67585 2.30829,-6.34781 7.50195,-9.81024 3.75097,-5.19365 4.90512,-7.21342 8.94463,-10.38731 8.94464,-8.07902 2.59682,-2.59683 6.63634,-8.94463 9.81024,-7.79049 18.1778,-14.71536 17.31219,-12.11853 22.79439,-12.11853 21.06316,-12.11854 6.92488,-5.77073 6.92487,-16.73511 10.09878,-12.69561 16.73512,-16.15804 12.98414,-7.79049 3.46244,-4.32805 -2.88537,-13.27268 -6.92487,-13.84975 -4.90512,-5.77073 -7.79049,-12.6956 -6.63634,-8.07903 -8.29066,-2.62253 -8.36507,-2.04026 -8.26305,-0.51007 -6.5317,-1.17494 -3.31817,-2.16402 -1.44268,-1.58695 -0.57707,4.03951 -0.28854,4.03951 z"
         id="path4220"
         inkscape:connector-curvature="0"
         sodipodi:nodetypes="ccccccccccccccccccccccccccccccccccccccccsccccccccccsccccccccccccccccccscccccccccccccscccccsccccccccccccccccccccscccccccccccccccccccccccccccccccsscccccccccccccccccccccccccccscccccccccccccccccccccccccccccccscccccccccccccccccccccccccccccccccccccccccccccccccccccccccccccccccccccccccccccccccccccccccccccccccccccccccccccc" />
      <path
         inkscape:connector-curvature="0"
         id="path4245"
         d="m 351.52734,754.61133 -7.13086,13.85351 -3.97851,9.28321 -3.97852,11.2207 -2.85742,3.26563 -1.63086,6.73242 -3.67383,0.4082 -7.75195,4.69141 -5.71289,5.50976 -10.60938,9.79297 -4.28515,0.61133 -5.50781,6.73242 -6.1211,10.60938 -5.10156,2.85742 -10.60938,10.60937 -10.00976,6.78516 -8.94531,7.21289 -10.24219,8.22266 -5.48242,9.37695 -3.89453,1.44336 -8.94532,9.95508 -4.03906,2.01953 -2.74219,7.64648 -6.34765,1.73047 -2.59571,5.04883 -13.5625,8.36914 -15.29101,11.39648 -6.49219,11.54102 -7.21484,9.08984 -5.48242,3.46289 -3.46094,3.60547 -8.94531,3.89649 -10.82032,7.64453 -18.46679,16.30273 c 0,0 -11.25274,14.71504 -11.68555,15.86914 -0.4328,1.1542 -4.18359,12.4082 -4.18359,12.4082 l 0,9.5215 1.00976,2.1641 2.88672,-1.5879 1.73047,2.3086 2.5957,2.0195 7.35938,-2.5957 14.42578,-7.791 18.75586,-10.3867 36.0664,-18.75591 26.83399,-12.11719 18.4668,-7.35937 19.33203,-6.7793 -3.44727,6.52149 c 6.20045,-3.63331 15.08203,-8.83204 15.08203,-8.83204 0,0 24.07558,-32.64393 27.74805,-36.3164 3.67247,-3.67247 54.26953,-69.77735 54.26953,-69.77735 0,0 32.64483,-40.80543 33.46094,-42.8457 0.54072,-1.35181 -16.87073,-34.31878 -28.77735,-56.5957 z"
         style="display:inline;opacity:1;fill:#bf0a00;fill-opacity:1;fill-rule:evenodd;stroke:none;stroke-width:1px;stroke-linecap:butt;stroke-linejoin:miter;stroke-opacity:1" />
      <path
         inkscape:connector-curvature="0"
         id="path4252"
         d="m 826.52148,539.99414 -2.17187,2.35352 -1.73242,4.03906 -1.1543,9.23242 2.01953,3.75195 -1.73047,6.92383 -2.01953,15.8711 -8.94531,12.98437 -3.46289,16.73438 c 0,0 -6.34624,15.29169 -6.63477,16.73437 -0.28854,1.44268 -8.94531,15.29297 -8.94531,15.29297 l -11.83008,17.3125 -7.79101,15.58008 -7.50196,11.54297 -6.92382,14.13672 -14.42774,20.48632 -10.38672,16.73633 -7.26367,13.55664 -8.77344,14.79297 -6.19336,11.77734 0.0137,-0.0215 6.05859,19.62109 13.27344,-1.15429 10.09765,-4.03907 c 0,0 18.46642,-8.94546 19.33203,-10.09961 0.86561,-1.15414 10.38672,-8.65624 10.38672,-8.65624 l 21.06446,-20.19727 20.63086,-25.96875 13.70507,-21.49609 14.85938,-23.94727 12.83984,-22.65039 8.51172,-23.94922 4.32813,-18.0332 0.14453,-15.00391 -1.44336,-15.29297 c 0,0 -1.15482,-11.6857 -1.44336,-12.83984 -0.28854,-1.15415 -3.89453,-8.07813 -3.89453,-8.07813 l -8.36719,-13.1289 -8.65625,-8.65625 -7.64648,-4.9043 -7.92579,-1.34375 z"
         style="display:inline;opacity:1;fill:#bf0a00;fill-opacity:1;fill-rule:evenodd;stroke:none;stroke-width:1px;stroke-linecap:butt;stroke-linejoin:miter;stroke-opacity:1" />
      <path
         sodipodi:nodetypes="ccccccccccccccccccccccccccccccccccccccccsccccccccccsccccccccccccccccccscccccccccccccscccccsccccccccccccccccccccscccccccccccccccccccccccccccccccsscccccccccccccccccccccccccccscccccccccccccccccccccccccccccccscccccccccccccccccccccccccccccccccccccccccccccccccccccccccccccccccccccccccccccccccccccccccccccccccccccccccccccc"
         inkscape:connector-curvature="0"
         id="path4258"
         d="m 562.79044,369.08119 -1.29841,-1.15415 -3.1739,-13.12841 -0.28854,-7.93475 5.48219,-11.68573 9.66598,-11.25292 9.81024,-7.35768 11.68573,-3.89525 8.51182,-8.80036 3.58812,-6.40187 12.44559,-7.95701 15.30196,-5.50871 17.34222,-3.46844 17.13819,-0.61208 16.93417,0.40805 18.36235,3.46844 21.62677,6.52884 18.7704,7.75299 12.64962,9.58923 16.11806,12.03754 17.41555,21.23996 9.81024,12.98414 7.50195,17.31219 4.32804,13.27268 -3.1739,13.27268 -0.86561,14.13829 3.34064,17.54611 6.32481,20.19859 9.18118,13.66975 6.12078,10.2013 1.22416,6.12079 -1.63221,9.99728 -5.91676,15.50598 0.25654,13.0859 -0.72134,14.85963 -0.72134,6.78061 8.51183,1.44268 7.64622,4.90512 8.65609,8.65609 8.36756,13.12842 c 0,0 3.6067,6.92487 3.89524,8.07902 0.28854,1.15414 1.44268,12.83987 1.44268,12.83987 l 1.44269,15.29244 -0.14427,15.00389 -4.32805,18.03354 -8.51183,23.94852 -12.83987,22.65012 -14.85963,23.94853 -13.70548,21.49597 -20.63036,25.96828 -21.06317,20.19756 c 0,0 -9.5217,7.50195 -10.38731,8.65609 -0.86561,1.15415 -19.33195,10.09878 -19.33195,10.09878 l -10.09878,4.03951 -13.27267,1.15415 -6.05927,-19.62048 -17.45646,28.42084 -9.81024,21.20743 -10.96439,19.62049 -11.68573,18.03353 -12.83987,18.89914 -8.80036,12.6956 -1.73122,2.3083 -0.72134,6.63634 -7.43925,4.46418 -9.28319,13.05767 -0.71409,8.5691 0.40805,29.27774 0.10202,1.63221 8.05903,-1.53019 c 0,0 18.7704,-1.02013 19.38248,-1.22416 0.61208,-0.20403 18.97443,-0.51007 18.97443,-0.51007 l 3.46844,-0.10201 3.75835,1.33173 5.98713,4.32805 5.33792,6.3478 2.01976,6.92488 0.035,11.16139 -3.26442,8.5691 -3.8765,4.89661 -2.65234,-12.24155 -3.06039,-8.77312 -3.55584,2.44683 -4.40018,0.64921 -4.68872,-3.24604 c -0.57044,-0.39492 -1.55727,-4.3239 -1.58695,-4.47231 l -12.6956,-1.00988 -3.89525,1.87549 -12.83905,2.43053 -2.55032,2.55032 c 0,0 -4.28455,-0.61207 -3.8765,0.20403 0.40805,0.8161 5.10065,4.59059 5.10065,4.59059 l 7.95702,6.12078 c 0,0 6.93689,2.14228 7.54897,2.3463 0.61208,0.20403 11.62949,6.22282 11.62949,6.22282 l 5.20266,6.6308 0.91812,4.4886 0.0966,0.9872 0,1.7312 2.7411,4.1117 2.30829,4.1838 1.37055,4.5444 -0.36067,7.502 -0.28854,1.082 -2.59683,-3.5346 -3.1739,-6.9249 -3.1739,-5.1215 -1.15415,2.0919 -4.11164,1.4427 -6.49207,-3.6789 -4.03951,-3.3181 c 0,0 -1.58695,1.8755 -2.01976,2.5968 -0.4328,0.7213 -3.75097,0 -3.75097,0 l -7.21342,-3.751 -8.51182,-7.2134 -8.80037,-6.2035 -7.21341,-4.0395 -3.89524,-1.0099 -3.1739,3.4624 -2.88537,5.1937 c 0,0 3.31817,6.4921 3.1739,7.0691 -0.14426,0.5771 -0.72134,8.2233 -0.72134,8.2233 l -6.49207,2.5968 -1.15414,4.9052 -0.0806,9.9005 -0.30604,6.4269 -1.93825,2.6523 -6.01877,2.5503 1.5302,3.9785 5.40669,8.3651 2.65234,6.3248 -1.02013,5.1007 -7.75299,-1.6322 -5.71273,-7.345 -3.8765,-8.161 -2.85636,5.5087 -4.08053,5.3047 -3.46844,5.1006 0,8.1611 -1.22416,7.1409 -3.67247,-1.8363 -3.67247,-5.7127 -1.42818,-8.5691 c 0,0 1.83623,-6.1208 2.85637,-7.957 1.02013,-1.8362 5.71273,-6.3248 6.52883,-7.957 0.81611,-1.6322 2.24429,-4.0806 2.24429,-4.0806 l 6.32481,-4.6926 1.02013,-7.3449 1.02013,-7.957 1.83623,-3.8765 0.61208,-35.29653 2.85637,-29.17573 -10.57421,-19.46216 -9.81024,-24.23707 -14.42682,-33.47023 -4.90512,-12.69561 -4.61659,4.90512 -5.77073,-4.90512 -2.88536,7.50195 -12.40707,6.63634 -0.28854,16.15804 -1.15415,5.4822 -3.75097,-6.05927 -3.75097,-15.29244 -1.44269,7.79049 0.28854,11.54146 -4.32805,3.1739 -3.1739,-12.6956 -1.15415,-6.92488 -5.48219,-16.73512 -2.01975,10.96439 -1.73122,6.3478 c 0,0 -3.17391,-3.1739 -3.17391,-4.61658 0,-1.44268 -2.59682,-12.40707 -2.59682,-12.40707 l -7.21342,10.67585 -27.67683,42.82306 -28.56366,44.88575 -29.78781,43.25356 -42.02938,55.9031 -18.23032,26.6515 -16.44658,20.7747 -8.94463,6.9248 -16.15805,0 -4.03951,-2.3082 -2.88536,4.9051 -9.23317,4.328 -10.96439,6.0593 -17.60073,4.6166 -6.49207,-1.2984 -3.46243,-1.8755 -7.06915,2.3083 -8.65609,-1.1542 -8.6561,-4.6166 -2.30829,-3.0296 -9.95451,4.6166 -8.36756,1.5869 -5.48219,1.7313 -1.58695,-2.3083 -0.57708,-2.7411 -6.92487,-1.587 -0.72134,-4.4723 5.48219,-22.073 -3.31817,-1.0099 -1.15415,-3.6067 c 0,0 5.04939,-8.2233 5.62647,-9.2332 0.57707,-1.0099 6.92487,-10.9644 6.92487,-10.9644 l 10.53158,-14.4268 9.81025,-11.2529 0,-2.4526 6.63634,-14.2826 9.0889,-19.4762 10.67585,-18.1778 7.06914,-12.1185 3.31817,-7.06914 7.93475,-16.44658 5.33793,-10.09878 -19.33195,6.78061 -18.46633,7.35768 -26.8339,12.11853 -36.06706,18.75488 -18.75487,10.3873 -14.42683,7.7905 -7.35768,2.5968 -2.59683,-2.0197 -1.73122,-2.3083 -2.88536,1.5869 -1.00988,-2.164 0,-9.5217 c 0,0 3.75098,-11.2529 4.18378,-12.4071 0.43281,-1.1541 11.68573,-15.86948 11.68573,-15.86948 l 18.46634,-16.30231 10.82011,-7.64622 8.94464,-3.89524 3.46243,-3.60671 5.4822,-3.46244 7.21341,-9.0889 6.49207,-11.54146 15.29244,-11.39719 13.56121,-8.36756 2.59683,-5.04938 6.3478,-1.73122 2.7411,-7.64622 4.03951,-2.01976 8.94463,-9.95451 3.89524,-1.44268 5.4822,-9.37743 10.24304,-8.22329 8.94463,-7.21342 10.01068,-6.78458 10.60936,-10.60936 5.10065,-2.85636 6.12078,-10.60936 5.50871,-6.73286 4.28455,-0.61208 10.60936,-9.79326 5.71273,-5.5087 7.75299,-4.6926 3.67247,-0.40805 1.63221,-6.73287 2.85636,-3.26441 3.97851,-11.22144 3.97851,-9.28319 8.87514,-17.2402 10.50734,-14.99592 3.26442,-5.10066 3.8765,-3.87649 1.73422,-7.0389 8.97715,-8.5691 2.5555,-1.65603 5.915,-10.38731 2.01975,-6.78061 -0.14426,-6.3478 4.61658,-6.92488 3.02963,-7.93475 5.77073,-8.6561 2.88537,-3.46243 2.88536,-7.50195 7.50195,-11.54146 4.61659,-10.38732 2.88536,-4.61658 6.63634,-9.81024 6.05927,-10.67585 2.30829,-6.34781 7.50195,-9.81024 3.75097,-5.19365 4.90512,-7.21342 8.94463,-10.38731 8.94464,-8.07902 2.59682,-2.59683 6.63634,-8.94463 9.81024,-7.79049 18.1778,-14.71536 17.31219,-12.11853 22.79439,-12.11853 21.06316,-12.11854 6.92488,-5.77073 6.92487,-16.73511 10.09878,-12.69561 16.73512,-16.15804 12.98414,-7.79049 3.46244,-4.32805 -2.88537,-13.27268 -6.92487,-13.84975 -4.90512,-5.77073 -7.79049,-12.6956 -6.63634,-8.07903 -8.29066,-2.62253 -8.36507,-2.04026 -8.26305,-0.51007 -6.5317,-1.17494 -3.31817,-2.16402 -1.44268,-1.58695 -0.57707,4.03951 -0.28854,4.03951 z"
         style="display:inline;opacity:0;fill:#e50b00;fill-opacity:1;fill-rule:evenodd;stroke:none;stroke-width:1px;stroke-linecap:butt;stroke-linejoin:miter;stroke-opacity:1" />
      <path
         inkscape:connector-curvature="0"
         id="path4261"
         d="m 556.16992,863.35156 c -0.30375,-0.0118 -0.55599,0.0285 -0.73633,0.13672 -1.44268,0.86561 -4.03974,2.02059 -5.48242,2.59766 -1.44268,0.57707 -9.23437,-1.87696 -9.23437,-1.87696 0,0 -1.87527,11.54206 -2.01953,12.11914 -0.008,0.0306 -0.17899,1.34126 -0.20508,1.51563 l 0.20508,-0.2168 4.90625,12.69532 14.42578,33.4707 9.81054,24.23633 10.57422,19.46289 -2.85547,29.17578 -0.61328,35.29683 -1.83593,3.875 -1.01954,7.9571 -1.02148,7.3457 -6.32422,4.6933 c 0,0 -1.42803,2.4479 -2.24414,4.0801 -0.8161,1.6322 -5.50917,6.1208 -6.5293,7.957 -1.02014,1.8362 -2.85547,7.9571 -2.85547,7.9571 l 1.42774,8.5683 3.67187,5.7129 3.67383,1.836 1.22266,-7.1407 0,-8.1601 3.46875,-5.1016 4.08008,-5.3047 2.85742,-5.5078 3.87695,8.1602 5.71289,7.3457 7.75196,1.6308 1.01953,-5.0996 -2.65235,-6.3242 -5.40625,-8.3652 -1.52929,-3.9785 6.01757,-2.5508 1.93946,-2.6524 0.30468,-6.4277 0.082,-9.9004 1.15429,-4.9043 6.49219,-2.5976 c 0,0 0.57644,-7.6456 0.7207,-8.2227 0.14427,-0.577 -3.17383,-7.0684 -3.17383,-7.0684 l 2.88477,-5.1953 3.17383,-3.4609 3.89648,1.0098 7.21289,4.039 8.80079,6.2031 8.51171,7.2129 7.21289,3.752 c 0,0 3.3172,0.7213 3.75,0 0.43281,-0.7213 2.02149,-2.5977 2.02149,-2.5977 l 4.03906,3.3184 6.49219,3.6797 4.11133,-1.4434 1.15429,-2.0918 3.17383,5.1211 3.17383,6.9258 2.5957,3.5352 0.28907,-1.0821 0.36132,-7.5019 -1.37109,-4.545 -2.30859,-4.1835 -2.74024,-4.1114 0,-1.7324 -0.0977,-0.9863 -0.91797,-4.4883 -5.20117,-6.6309 c 0,0 -11.01878,-6.02054 -11.63086,-6.22457 -0.61208,-0.20402 -7.54883,-2.34571 -7.54883,-2.34571 l -7.95703,-6.12109 c 0,0 -4.69156,-3.77374 -5.09961,-4.58984 -0.40805,-0.8161 3.875,-0.20508 3.875,-0.20508 l 2.55078,-2.54883 12.83984,-2.43164 3.89453,-1.875 12.69532,1.00977 c 0.0297,0.14841 1.01745,4.07773 1.58789,4.47265 l 4.6875,3.2461 4.40039,-0.64844 3.55664,-2.44727 3.06054,8.77344 2.65235,12.24021 3.87695,-4.89646 3.26367,-8.56836 -0.0351,-11.16211 -2.01953,-6.92383 -5.33789,-6.34765 -5.98829,-4.32813 -3.75781,-1.33203 -3.46875,0.10156 c 0,0 -18.36253,0.30574 -18.97461,0.50977 -0.61208,0.20403 -19.38086,1.22461 -19.38086,1.22461 l -8.06054,1.5293 -0.10157,-1.63086 -0.4082,-29.2793 0.38477,-4.61719 c -0.59028,-3.13574 -1.84766,-9.87306 -1.84766,-10.79687 0,-1.15415 -1.73047,-7.50196 -1.73047,-7.50196 l -2.59766,2.3086 -2.5957,-4.32813 -3.17383,-6.34765 -0.57812,9.52148 -6.0586,-8.65625 -7.21289,-22.79492 -8.65625,-14.71484 -0.28906,10.38671 c 0,0 2.88477,15.29365 2.88477,16.73633 0,1.44269 3.46289,28.56446 3.46289,28.56446 l 3.46289,18.7539 -8.08008,-16.15625 -12.69531,-23.08398 c 0,0 -6.05913,-17.88883 -6.34766,-19.04297 -0.28854,-1.15415 -4.32812,-7.21289 -4.32812,-7.21289 l -0.28711,-8.65625 c 0,0 -4.63936,-2.65154 -6.76563,-2.73438 z"
         style="display:inline;opacity:1;fill:#bf0a00;fill-opacity:1;fill-rule:evenodd;stroke:none;stroke-width:1px;stroke-linecap:butt;stroke-linejoin:miter;stroke-opacity:1" />
      <path
         inkscape:connector-curvature="0"
         id="path4287"
         d="m 681.65234,973.94141 c -0.66949,0.0304 -1.64453,0.27343 -1.64453,0.27343 0,0 -1.65926,2.01876 -2.23633,2.66797 -0.57707,0.6492 -1.94765,2.59649 -2.16406,3.0293 -0.2164,0.4328 -1.3693,3.31889 -1.4414,3.60742 -0.0116,0.0464 -0.0459,0.63428 -0.0645,0.87891 l 2.85742,8.18945 2.65235,12.24021 3.87695,-4.89646 3.26367,-8.56836 -0.0351,-11.16211 -1.30078,-4.45703 c -0.48615,-0.29971 -0.88817,-0.52783 -1.08008,-0.5918 -0.86561,-0.28854 -1.73125,-0.93789 -2.16406,-1.15429 -0.10821,-0.0541 -0.29637,-0.0668 -0.51954,-0.0566 z m -23.14062,41.38869 -3.10156,1.1543 c 0,0 -0.86537,2.5974 -0.9375,3.5351 -0.0721,0.9378 1.00976,3.2461 1.00976,3.2461 l 2.52539,1.0098 0.97071,0.1289 0.11132,-0.2012 3.17383,5.1211 3.17383,6.9258 2.5957,3.5352 0.28907,-1.0821 0.36132,-7.5019 -1.37109,-4.545 -2.30859,-4.1835 -2.74024,-4.1114 0,-0.061 c -0.0516,-0.029 -0.11852,-0.058 -0.14453,-0.084 -0.36067,-0.3607 -1.22722,-1.8756 -1.58789,-2.2363 -0.36067,-0.3606 -2.01953,-0.6504 -2.01953,-0.6504 z m -80.13477,37.4043 c -0.23152,0 -0.39614,0.015 -0.47265,0.041 -0.61208,0.204 -4.08159,-0.4079 -4.1836,0.4082 -0.10202,0.8161 -0.91797,3.7731 -0.91797,4.2832 0,0.3462 0.39101,2.0346 0.69336,3.3086 l 0.0215,-0.043 3.87695,8.1602 5.71289,7.3457 7.75196,1.6308 1.01953,-5.0996 -2.65235,-6.3242 -5.40625,-8.3652 -1.52929,-3.9785 2.23242,-0.9454 c -0.5239,-0.05 -4.62408,-0.4402 -6.14649,-0.4218 z m -17.15039,8.916 c -1.7162,2.0334 -4.49765,4.8579 -5.25586,6.2226 -1.02014,1.8362 -2.85547,7.9571 -2.85547,7.9571 l 1.42774,8.5683 3.67187,5.7129 3.67383,1.836 1.22266,-7.1407 0,-8.1601 1.82031,-2.6777 c 0.20176,-0.5272 0.42816,-1.053 0.62891,-1.4043 0.40806,-0.7141 0.20312,-3.7735 0.20312,-3.7735 l 1.22461,-4.6933 c 0,0 -1.63251,-1.7345 -2.14258,-2.1426 -0.50389,-0.4031 -2.20115,-0.3071 -3.61914,-0.3047 z"
         style="display:inline;opacity:1;fill:#950700;fill-opacity:1;fill-rule:evenodd;stroke:none;stroke-width:1px;stroke-linecap:butt;stroke-linejoin:miter;stroke-opacity:1" />
      <path
         inkscape:connector-curvature="0"
         id="path4223"
         d="m 669.00195,279.92383 -17.13867,0.61133 -17.3418,3.46875 -15.30273,5.50976 -12.44531,7.95703 -3.58789,6.40039 -8.51172,8.80079 -11.68555,3.89648 -9.81055,7.35742 -9.66601,11.25195 -5.48242,11.68555 0.28906,7.93555 3.17383,13.1289 1.29883,1.1543 1.73046,-0.72265 0.28907,-4.03907 0.45507,-3.18554 -0.18945,-1.94727 1.53711,-2.6582 3.10156,-2.66797 5.26563,-2.95703 5.55469,-3.17578 6.41992,-1.58594 7.50195,-0.64844 9.59375,0.35938 6.49219,1.37109 2.23633,1.73047 5.84375,0.50586 4.25586,0.9375 4.97656,2.30859 6.70898,3.9668 2.23633,1.73242 7.78906,6.49023 17.89063,16.44727 21.63867,28.56445 15.87109,18.17774 4.32813,-0.14258 5.91406,3.89453 2.59766,-0.28906 0.57617,-3.0293 -2.74023,-4.61719 -2.88672,-4.03906 6.63672,4.47266 5.77148,4.32812 2.74023,0.57617 0,-2.88476 c 0,-0.86561 -3.46289,-7.35742 -3.46289,-7.35742 l 4.21485,1.9082 8.33789,3.14063 7.78906,0.57812 6.63672,-2.88672 -0.57617,-3.75 -4.90625,-1.44336 4.61718,-2.30859 3.75196,-1.15235 1.1543,-3.75195 -4.61719,-3.46289 3.46289,0 2.01953,-2.01953 -1.44336,-3.17383 -4.03906,-2.01953 0.57617,-1.44336 6.63672,4.04102 5.48242,2.5957 8.65625,4.61719 6.34766,1.73047 1.73047,-0.86524 -6.34766,-6.92578 0.86523,-1.73047 6.92578,2.88477 3.17383,-0.86524 -1.15429,-4.32812 -9.81055,-11.54102 0,-3.75 4.61719,0.86524 3.75,-2.88672 -7.21289,-4.32813 -4.03907,-1.4414 -1.73047,-5.19336 5.76954,0 4.61718,-2.59766 8.07813,-1.1543 8.94531,3.75196 9.81055,9.80859 9.99609,8.66406 0.96875,-4.04687 -4.32812,-13.27149 -7.50196,-17.3125 -9.81054,-12.98437 -17.41602,-21.24024 -16.11719,-12.0371 -12.65039,-9.58985 -18.76953,-7.75195 -21.62695,-6.5293 -18.36328,-3.46875 -16.9336,-0.4082 z"
         style="display:inline;opacity:1;fill:#fe2217;fill-opacity:1;fill-rule:evenodd;stroke:none;stroke-width:1px;stroke-linecap:butt;stroke-linejoin:miter;stroke-opacity:1" />
      <path
         inkscape:connector-curvature="0"
         id="path4230"
         d="m 628.40039,429.27148 -2.85547,0.20313 -0.0605,-0.0234 -11.18946,6.71485 -16.73633,16.1582 -10.09765,12.69531 -6.92578,16.73438 -6.92383,5.77148 -21.06445,12.11914 -22.79297,12.11719 -17.3125,12.11914 -18.17774,14.71484 -9.81055,7.79102 -6.63671,8.94531 -2.59766,2.5957 -8.94336,8.08008 -8.94531,10.38672 -4.9043,7.21289 -3.75195,5.19336 -7.50195,9.81055 -2.3086,6.34765 -6.05859,10.67579 -6.63672,9.81054 -2.88477,4.61719 -4.61718,10.38672 -7.50196,11.54297 -2.88476,7.50195 -2.88477,3.46094 -5.77148,8.65625 -3.0293,7.93555 -4.61719,6.92382 0.14453,6.34766 -2.01953,6.78125 -5.91601,10.38672 -2.55469,1.65625 -8.97656,8.57031 -1.73438,7.03906 -3.87695,3.875 -3.26367,5.10157 -10.50782,14.99609 -8.875,17.24023 -3.97851,9.28321 -3.97852,11.2207 -2.85742,3.26563 -0.51367,2.11914 0.19141,2.48242 1.00976,4.18359 3.89453,-1.1543 6.63672,-4.61523 c 0,0 -4.18385,6.49181 -4.32812,7.35742 -0.14427,0.86561 -4.32813,10.53231 -4.32813,11.10938 0,0.57708 -5.21484,13.71093 -5.21484,13.71093 l -3.06055,7.44727 -0.20312,2.95898 2.3457,1.1211 3.46875,-4.69141 3.77539,-6.01953 -1.02148,4.69336 0.30664,4.08008 2.7539,-0.20508 -7.85351,8.06055 -7.70313,9.66992 -13.84961,18.17773 -13.99414,19.91016 -10.82031,14.71484 -14.2832,21.64063 c 0,0 -8.36719,15.87018 -8.36719,16.44726 0,0.57707 -8.82031,16.75391 -8.82031,16.75391 l -0.61914,0.66016 -5.13086,9.70703 -7.93555,16.44726 -3.31836,7.06836 -7.06836,12.11915 -10.67578,18.1777 -9.08985,19.4766 -5.72265,12.3144 -0.0176,0.7363 -0.4082,4.0821 15.09961,-16.7305 37.94726,-47.74215 44.13477,-54.80274 2.45312,-5.62695 -2.59765,-0.7207 9.46484,-12.50391 31.82813,-39.17188 41.00976,-45.08984 33.25586,-35.29687 31.2168,-28.76758 23.87109,-23.05469 22.84961,-20.50586 c 0,0 19.07737,-16.21995 19.68945,-16.83203 0.61208,-0.61208 11.42578,-9.58789 11.42578,-9.58789 l 12.42188,-9.54102 4.03906,-0.7207 2.88672,-4.32813 5.91406,-3.46289 8.36719,-8.36718 11.68555,-11.68555 9.52344,-13.99414 8.07812,-12.69531 5.48242,-4.32813 1.00977,-4.9043 3.89453,-3.60742 13.27344,-12.83984 9.95508,-10.67578 c 1.23299,-1.32234 5.91406,-11.25196 5.91406,-11.25196 l 4.76172,-14.86132 c 0,0 0.57617,-13.70418 0.57617,-14.28125 0,-0.57707 -3.46289,-7.21485 -3.46289,-7.21485 l -6.34766,-9.08789 -13.84961,-5.19336 -19.61914,-6.34765 -15.87109,-4.04102 -11.54102,-1.15234 18.17774,-8.36914 14.42773,-8.36719 -0.86719,-3.75 -0.57617,-24.52539 3.46094,-18.09766 9.38476,-14.89258 11.62891,-11.42578 9.58984,-9.99804 0.81641,-3.26368 z"
         style="display:inline;opacity:1;fill:#fe2217;fill-opacity:1;fill-rule:evenodd;stroke:none;stroke-width:1px;stroke-linecap:butt;stroke-linejoin:miter;stroke-opacity:1" />
      <path
         inkscape:connector-curvature="0"
         id="path4275"
         d="m 626.97225,319.50489 c 0,0 3.8765,-7.34494 4.28455,-8.16104 0.40805,-0.8161 4.28455,-4.08052 5.50871,-4.6926 1.22415,-0.61208 4.08052,-3.06039 6.73286,-2.85637 2.65234,0.20403 15.91404,-1.02013 15.91404,-1.02013 0,0 10.60935,3.26442 12.03754,3.46845 1.42818,0.20402 15.91403,4.6926 15.91403,4.6926 l 16.52612,6.93689 15.30196,6.32481 16.73014,8.77312 c 0,0 -13.87378,-2.24429 -17.13819,-2.65234 -3.26442,-0.40805 -18.36235,-2.04026 -19.79054,-2.04026 -1.42818,0 -10.2013,-0.40805 -10.2013,-0.40805 l -4.6926,3.46844 -7.34494,7.54897 -6.52884,5.91675 -6.52884,3.06039 -8.77312,1.02014 -10.40533,-4.69261 c 0,0 -6.93689,-5.10065 -7.75299,-5.91675 -0.81611,-0.81611 -6.93689,-7.34494 -6.93689,-7.34494 l -2.85637,-4.89663 z"
         style="display:inline;fill:#d00a00;fill-opacity:1;fill-rule:evenodd;stroke:none;stroke-width:1px;stroke-linecap:butt;stroke-linejoin:miter;stroke-opacity:1" />
      <path
         sodipodi:nodetypes="aasaaczacaazzaassa"
         inkscape:connector-curvature="0"
         id="path4278"
         d="m 647.47688,321.85119 c 0.21308,2.12486 0.34805,4.29781 1.02013,6.32481 0.85681,2.58413 1.86772,5.2997 3.77448,7.24293 0.89524,0.91236 2.09348,1.72027 3.36643,1.83624 2.60226,0.23708 5.082,-1.33706 7.44696,-2.44832 2.83491,-1.33209 7.855,-4.6926 7.95701,-4.99864 0.10202,-0.30604 3.20737,-4.91972 3.97851,-6.32481 0.77114,-1.40509 0.37758,-1.47037 0.91812,-1.93824 0.69941,-0.60538 2.65234,-0.81611 2.65234,-0.81611 0,0 -2.10151,-0.0869 -2.85636,-0.71409 -1.697,-1.41003 -1.61245,-4.1309 -2.75436,-6.01877 -0.68997,-1.14069 -1.3409,-1.93561 -2.44831,-3.1624 -1.1074,-1.2268 -2.11157,-2.90455 -4.28454,-4.08053 -2.17298,-1.17598 -5.7035,-2.14032 -8.67112,-2.04025 -2.31123,0.0779 -4.78934,0.64142 -6.63084,2.04026 -1.25439,0.95285 -1.92344,2.13563 -2.55033,3.9785 -0.65725,1.9321 -0.97499,3.98325 -1.12215,6.01877 -0.1227,1.69715 0.0343,3.40757 0.20403,5.10065 z"
         style="fill:#ff8314;fill-opacity:1;fill-rule:evenodd;stroke:none;stroke-width:1px;stroke-linecap:butt;stroke-linejoin:miter;stroke-opacity:1" />
    </g>
    <flowRoot
       xml:space="preserve"
       id="flowRoot4276"
       style="font-style:normal;font-variant:normal;font-weight:normal;font-stretch:normal;font-size:42.7498436px;line-height:125%;font-family:'Gill Sans MT Pro';-inkscape-font-specification:'Gill Sans MT Pro';letter-spacing:0px;word-spacing:0px;display:inline;fill:#000000;fill-opacity:1;stroke:none;stroke-width:1px;stroke-linecap:butt;stroke-linejoin:miter;stroke-opacity:1"
       transform="translate(672,0)"><flowRegion
         id="flowRegion4278"><rect
           id="rect4280"
           width="2084.5967"
           height="1069.0239"
           x="58.595192"
           y="289.3584" /></flowRegion><flowPara
         id="flowPara4282"
         style="font-style:normal;font-variant:normal;font-weight:500;font-stretch:normal;font-size:445.31091309px;line-height:125%;font-family:'Noto Sans CJK KR';-inkscape-font-specification:'Noto Sans CJK KR, Medium';text-align:start;letter-spacing:-14.74887562px;writing-mode:lr-tb;text-anchor:start;fill:#ff8314;fill-opacity:1">op</flowPara></flowRoot>  </g>
</svg>
